<svg xmlns="http://www.w3.org/2000/svg" version="1.1" width="3300" height="2000"><g id="Notes"><style>
    text {
      font-family: monospace;
      text-anchor: middle;
    }
    text.emphasis {
      font-weight:bold;
    }
    text.lanchor {
      text-anchor: start;
    }
  </style><rect height="2200" id="artboard" fill="white" width="3300" x="0" y="0"/><line id="" style="fill:none;stroke:black;stroke-width:0.5;" x1="263" x2="3036" y1="292" y2="292"/><text class="lanchor emphasis" transform="matrix(1 0 0 1 263 322)">Weight/Scale Variations</text><text transform="matrix(1 0 0 1 559.711 322)">Ultralight</text><text transform="matrix(1 0 0 1 856.422 322)">Thin</text><text transform="matrix(1 0 0 1 1153.13 322)">Light</text><text transform="matrix(1 0 0 1 1449.84 322)">Regular</text><text transform="matrix(1 0 0 1 1746.56 322)">Medium</text><text transform="matrix(1 0 0 1 2043.27 322)">Semibold</text><text transform="matrix(1 0 0 1 2339.98 322)">Bold</text><text transform="matrix(1 0 0 1 2636.69 322)">Heavy</text><text transform="matrix(1 0 0 1 2933.4 322)">Black</text><text id="template-version" style="text-anchor: end;" transform="matrix(1 0 0 1 3036 1933)">Template v.1.0</text><text class="lanchor" transform="matrix(1 0 0 1 263 726)">Small</text><text class="lanchor" transform="matrix(1 0 0 1 263 1156)">Medium</text><text class="lanchor" transform="matrix(1 0 0 1 263 1586)">Large</text></g><g id="Guides"><g id="H-reference" style="fill:#27AAE1;stroke:none;" transform="matrix(1 0 0 1 339 696)"><path d="M 54.9316 0 L 57.666 0 L 30.5664 -70.459 L 28.0762 -70.459 L 0.976562 0 L 3.66211 0 L 12.9395 -24.4629 L 45.7031 -24.4629 Z M 29.1992 -67.0898 L 29.4434 -67.0898 L 44.8242 -26.709 L 13.8184 -26.709 Z"/></g><line id="Baseline-S" style="fill:none;stroke:#27AAE1;opacity:1;stroke-width:0.577;" x1="263" x2="3036" y1="696" y2="696"/><line id="Capline-S" style="fill:none;stroke:#27AAE1;opacity:1;stroke-width:0.577;" x1="263" x2="3036" y1="625.541" y2="625.541"/><g id="H-reference" style="fill:#27AAE1;stroke:none;" transform="matrix(1 0 0 1 339 1126)"><path d="M 54.9316 0 L 57.666 0 L 30.5664 -70.459 L 28.0762 -70.459 L 0.976562 0 L 3.66211 0 L 12.9395 -24.4629 L 45.7031 -24.4629 Z M 29.1992 -67.0898 L 29.4434 -67.0898 L 44.8242 -26.709 L 13.8184 -26.709 Z"/></g><line id="Baseline-M" style="fill:none;stroke:#27AAE1;opacity:1;stroke-width:0.577;" x1="263" x2="3036" y1="1126" y2="1126"/><line id="Capline-M" style="fill:none;stroke:#27AAE1;opacity:1;stroke-width:0.577;" x1="263" x2="3036" y1="1055.54" y2="1055.54"/><g id="H-reference" style="fill:#27AAE1;stroke:none;" transform="matrix(1 0 0 1 339 1556)"><path d="M 54.9316 0 L 57.666 0 L 30.5664 -70.459 L 28.0762 -70.459 L 0.976562 0 L 3.66211 0 L 12.9395 -24.4629 L 45.7031 -24.4629 Z M 29.1992 -67.0898 L 29.4434 -67.0898 L 44.8242 -26.709 L 13.8184 -26.709 Z"/></g><line id="Baseline-L" style="fill:none;stroke:#27AAE1;opacity:1;stroke-width:0.577;" x1="263" x2="3036" y1="1556" y2="1556"/><line id="Capline-L" style="fill:none;stroke:#27AAE1;opacity:1;stroke-width:0.577;" x1="263" x2="3036" y1="1485.54" y2="1485.54"/><rect height="119.336" id="left-margin" style="fill:darkred;stroke:none;opacity:0.4;" width="12.4512" x="1394.06" y="1030.79"/><rect height="119.336" id="right-margin" style="fill:darkgreen;stroke:none;opacity:0.4;" width="12.4512" x="1502.5112" y="1030.79"/><rect x="1406.5112" y="1045" width="96" height="96" fill="none" stroke="blue" stroke-dasharray="5"/><rect x="1394.06" y="1030.79" width="120.9024" height="119.336" fill="none" stroke="blue"/></g><g id="Symbols"><g id="Bold-L" transform="matrix(1 0 0 1 2266 1556)"><path d="M111.092 33.301 Q101.991 33.301 95.5 26.851 Q89.01 20.401 89.01 11.371 Q89.01 10.081 89.655 7.045 L45.634 -18.782 Q42.525 -15.986 38.876 -14.482 Q35.225 -12.977 30.96 -12.977 Q21.756 -12.977 15.312 -19.468 Q8.869 -25.958 8.869 -35.23 Q8.869 -44.502 15.312 -50.992 Q21.756 -57.482 30.96 -57.482 Q35.153 -57.482 38.847 -55.983 Q42.543 -54.485 45.634 -51.839 L89.494 -76.994 Q89.332 -78.122 89.171 -79.332 Q89.01 -80.541 89.01 -81.67 Q89.01 -90.768 95.51 -97.345 Q102.01 -103.922 111.111 -103.922 Q120.212 -103.922 126.702 -97.342 Q133.192 -90.761 133.192 -81.66 Q133.192 -72.559 126.726 -66.069 Q120.259 -59.579 111.021 -59.579 Q106.806 -59.579 103.068 -61.191 Q99.33 -62.804 96.266 -65.384 L52.406 -41.357 Q52.89 -39.929 53.132 -38.27 Q53.374 -36.61 53.374 -35.195 Q53.374 -33.779 53.212 -32.327 Q53.051 -30.876 52.568 -29.586 L96.266 -4.915 Q99.335 -7.666 103.089 -9.274 Q106.841 -10.881 111.132 -10.881 Q120.441 -10.881 126.817 -4.425 Q133.192 2.033 133.192 11.257 Q133.192 20.482 126.693 26.892 Q120.193 33.301 111.092 33.301 Z M111.008 19.273 Q114.487 19.273 116.826 16.963 Q119.164 14.653 119.164 11.239 Q119.164 7.824 116.843 5.486 Q114.525 3.148 110.934 3.148 Q107.481 3.148 105.261 5.492 Q103.039 7.835 103.039 11.216 Q103.039 14.596 105.283 16.934 Q107.528 19.273 111.008 19.273 Z M30.931 -27.006 Q34.346 -27.006 36.846 -29.315 Q39.345 -31.626 39.345 -35.201 Q39.345 -38.777 36.855 -41.116 Q34.366 -43.454 30.904 -43.454 Q27.442 -43.454 25.17 -41.145 Q22.898 -38.834 22.898 -35.259 Q22.898 -31.682 25.207 -29.344 Q27.517 -27.006 30.931 -27.006 Z M111.108 -73.607 Q114.487 -73.607 116.826 -75.946 Q119.164 -78.282 119.164 -81.738 Q119.164 -85.124 116.821 -87.509 Q114.479 -89.894 111.016 -89.894 Q107.554 -89.894 105.216 -87.504 Q102.877 -85.116 102.877 -81.583 Q102.877 -78.189 105.303 -75.899 Q107.726 -73.607 111.108 -73.607 Z"/></g><g id="Semibold-L" transform="matrix(1 0 0 1 1970.27 1556)"><path d="M110.885 31.548 Q102.411 31.548 96.411 25.573 Q90.413 19.595 90.413 11.162 Q90.413 9.872 91.127 6.332 L45.284 -20.535 Q42.385 -17.739 38.824 -16.199 Q35.264 -14.659 31.1 -14.659 Q22.567 -14.659 16.594 -20.659 Q10.622 -26.66 10.622 -35.23 Q10.622 -43.8 16.594 -49.801 Q22.567 -55.801 31.1 -55.801 Q35.153 -55.801 38.713 -54.301 Q42.273 -52.801 45.144 -50.157 L91.035 -76.504 Q90.805 -77.702 90.608 -78.982 Q90.413 -80.261 90.413 -81.53 Q90.413 -90.002 96.418 -96.05 Q102.421 -102.1 110.896 -102.1 Q119.37 -102.1 125.37 -96.049 Q131.37 -89.999 131.37 -81.525 Q131.37 -73.05 125.383 -67.051 Q119.398 -61.051 110.845 -61.051 Q106.831 -61.051 103.292 -62.594 Q99.751 -64.136 96.897 -66.646 L50.794 -41.217 Q51.278 -39.85 51.519 -38.245 Q51.761 -36.641 51.761 -35.245 Q51.761 -33.848 51.6 -32.503 Q51.439 -31.157 51.026 -29.867 L96.968 -3.793 Q99.823 -6.4 103.353 -7.905 Q106.885 -9.409 110.919 -9.409 Q119.535 -9.409 125.453 -3.428 Q131.37 2.552 131.37 11.097 Q131.37 19.64 125.365 25.595 Q119.36 31.548 110.885 31.548 Z M110.84 19.413 Q114.418 19.413 116.826 17.018 Q119.233 14.624 119.233 11.083 Q119.233 7.543 116.834 5.136 Q114.433 2.727 110.795 2.727 Q107.233 2.727 104.89 5.141 Q102.549 7.554 102.549 11.076 Q102.549 14.596 104.906 17.004 Q107.264 19.413 110.84 19.413 Z M31.087 -26.797 Q34.627 -26.797 37.126 -29.191 Q39.626 -31.586 39.626 -35.217 Q39.626 -38.847 37.129 -41.256 Q34.633 -43.663 31.066 -43.663 Q27.498 -43.663 25.128 -41.269 Q22.757 -38.874 22.757 -35.243 Q22.757 -31.613 25.152 -29.204 Q27.546 -26.797 31.087 -26.797 Z M110.896 -73.187 Q114.418 -73.187 116.826 -75.597 Q119.233 -78.008 119.233 -81.57 Q119.233 -85.095 116.821 -87.53 Q114.407 -89.963 110.84 -89.963 Q107.273 -89.963 104.866 -87.525 Q102.457 -85.085 102.457 -81.478 Q102.457 -77.95 104.916 -75.568 Q107.376 -73.187 110.896 -73.187 Z"/></g><g id="Medium-L" transform="matrix(1 0 0 1 1674.31 1556)"><path d="M110.73 30.234 Q102.728 30.234 97.095 24.611 Q91.464 18.99 91.464 11.004 Q91.464 9.714 92.232 5.797 L45.021 -21.849 Q42.28 -19.053 38.787 -17.488 Q35.293 -15.922 31.205 -15.922 Q23.176 -15.922 17.557 -21.553 Q11.936 -27.185 11.936 -35.23 Q11.936 -43.275 17.557 -48.907 Q23.176 -54.538 31.205 -54.538 Q35.153 -54.538 38.613 -53.038 Q42.073 -51.54 44.774 -48.894 L92.193 -76.134 Q91.909 -77.386 91.687 -78.719 Q91.464 -80.051 91.464 -81.425 Q91.464 -89.428 97.098 -95.08 Q102.731 -100.733 110.735 -100.733 Q118.74 -100.733 124.371 -95.08 Q130.003 -89.426 130.003 -81.422 Q130.003 -73.419 124.377 -67.786 Q118.751 -62.156 110.714 -62.156 Q106.851 -62.156 103.458 -63.645 Q100.067 -65.135 97.371 -67.593 L49.584 -41.112 Q50.068 -39.789 50.31 -38.226 Q50.552 -36.664 50.552 -35.283 Q50.552 -33.901 50.391 -32.634 Q50.229 -31.366 49.868 -30.076 L97.493 -2.953 Q100.189 -5.45 103.553 -6.877 Q106.915 -8.304 110.759 -8.304 Q118.856 -8.304 124.429 -2.682 Q130.003 2.943 130.003 10.976 Q130.003 19.01 124.369 24.621 Q118.735 30.234 110.73 30.234 Z M110.716 19.518 Q114.365 19.518 116.826 17.06 Q119.286 14.601 119.286 10.967 Q119.286 7.334 116.826 4.873 Q114.365 2.411 110.688 2.411 Q107.046 2.411 104.613 4.878 Q102.179 7.345 102.179 10.97 Q102.179 14.596 104.622 17.057 Q107.065 19.518 110.716 19.518 Z M31.203 -26.639 Q34.836 -26.639 37.336 -29.096 Q39.835 -31.555 39.835 -35.227 Q39.835 -38.9 37.334 -41.361 Q34.833 -43.821 31.187 -43.821 Q27.542 -43.821 25.097 -41.364 Q22.652 -38.905 22.652 -35.233 Q22.652 -31.56 25.11 -29.099 Q27.569 -26.639 31.203 -26.639 Z M110.738 -72.871 Q114.365 -72.871 116.826 -75.336 Q119.286 -77.802 119.286 -81.446 Q119.286 -85.072 116.821 -87.544 Q114.354 -90.016 110.708 -90.016 Q107.064 -90.016 104.603 -87.539 Q102.141 -85.061 102.141 -81.399 Q102.141 -77.771 104.627 -75.322 Q107.114 -72.871 110.738 -72.871 Z"/></g><g id="Regular-L" transform="matrix(1 0 0 1 1378.56 1556)"><path d="M110.618 29.27 Q102.958 29.27 97.597 23.908 Q92.235 18.547 92.235 10.888 Q92.235 9.598 93.041 5.405 L44.828 -22.814 Q42.202 -20.018 38.758 -18.433 Q35.314 -16.847 31.283 -16.847 Q23.623 -16.847 18.262 -22.209 Q12.9 -27.571 12.9 -35.23 Q12.9 -42.889 18.262 -48.251 Q23.623 -53.612 31.283 -53.612 Q35.153 -53.612 38.539 -52.113 Q41.925 -50.615 44.505 -47.969 L93.041 -75.865 Q92.719 -77.155 92.477 -78.526 Q92.235 -79.896 92.235 -81.347 Q92.235 -89.007 97.597 -94.368 Q102.958 -99.73 110.618 -99.73 Q118.277 -99.73 123.638 -94.368 Q129 -89.007 129 -81.347 Q129 -73.688 123.638 -68.327 Q118.277 -62.965 110.618 -62.965 Q106.865 -62.965 103.581 -64.416 Q100.297 -65.867 97.718 -68.286 L48.697 -41.035 Q49.181 -39.745 49.423 -38.213 Q49.665 -36.681 49.665 -35.311 Q49.665 -33.94 49.504 -32.731 Q49.343 -31.521 49.02 -30.231 L97.879 -2.335 Q100.459 -4.754 103.698 -6.124 Q106.939 -7.495 110.643 -7.495 Q118.358 -7.495 123.679 -2.133 Q129 3.228 129 10.888 Q129 18.547 123.638 23.908 Q118.277 29.27 110.618 29.27 Z M110.624 19.595 Q114.326 19.595 116.826 17.089 Q119.325 14.585 119.325 10.881 Q119.325 7.179 116.819 4.679 Q114.315 2.18 110.611 2.18 Q106.909 2.18 104.409 4.686 Q101.91 7.19 101.91 10.894 Q101.91 14.596 104.416 17.096 Q106.92 19.595 110.624 19.595 Z M31.289 -26.522 Q34.991 -26.522 37.491 -29.028 Q39.99 -31.533 39.99 -35.236 Q39.99 -38.939 37.484 -41.438 Q34.98 -43.937 31.276 -43.937 Q27.574 -43.937 25.074 -41.432 Q22.575 -38.927 22.575 -35.224 Q22.575 -31.521 25.081 -29.022 Q27.585 -26.522 31.289 -26.522 Z M110.624 -72.64 Q114.326 -72.64 116.826 -75.146 Q119.325 -77.65 119.325 -81.354 Q119.325 -85.056 116.819 -87.556 Q114.315 -90.055 110.611 -90.055 Q106.909 -90.055 104.409 -87.549 Q101.91 -85.045 101.91 -81.341 Q101.91 -77.639 104.416 -75.139 Q106.92 -72.64 110.624 -72.64 Z"/></g><g id="Light-L" transform="matrix(1 0 0 1 1082.77 1556)"><path d="M109.115 26.045 Q102.213 26.045 97.348 21.169 Q92.483 16.293 92.483 9.399 Q92.483 8.162 93.351 3.978 L45.385 -24.302 Q43.022 -21.622 39.771 -20.103 Q36.52 -18.584 32.71 -18.584 Q25.84 -18.584 20.983 -23.464 Q16.125 -28.345 16.125 -35.245 Q16.125 -42.144 20.983 -47.011 Q25.84 -51.876 32.689 -51.876 Q36.376 -51.876 39.585 -50.439 Q42.794 -49.002 45.126 -46.356 L93.351 -74.377 Q92.967 -75.667 92.725 -77.037 Q92.483 -78.408 92.483 -79.867 Q92.483 -86.753 97.363 -91.629 Q102.244 -96.505 109.144 -96.505 Q116.044 -96.505 120.91 -91.626 Q125.775 -86.745 125.775 -79.845 Q125.775 -72.943 120.899 -68.078 Q116.023 -63.213 109.111 -63.213 Q105.506 -63.213 102.405 -64.665 Q99.306 -66.116 96.973 -68.535 L48.449 -40.911 Q48.933 -39.621 49.175 -38.152 Q49.417 -36.681 49.417 -35.28 Q49.417 -33.879 49.225 -32.637 Q49.033 -31.397 48.648 -30.107 L97.134 -2.025 Q99.49 -4.444 102.542 -5.845 Q105.595 -7.247 109.145 -7.247 Q116.103 -7.247 120.939 -2.367 Q125.775 2.514 125.775 9.414 Q125.775 16.314 120.896 21.18 Q116.015 26.045 109.115 26.045 Z M109.145 18.726 Q113.117 18.726 115.787 16.039 Q118.456 13.353 118.456 9.383 Q118.456 5.411 115.769 2.741 Q113.083 0.071 109.113 0.071 Q105.141 0.071 102.471 2.757 Q99.801 5.444 99.801 9.415 Q99.801 13.387 102.487 16.057 Q105.174 18.726 109.145 18.726 Z M32.726 -25.902 Q36.723 -25.902 39.411 -28.588 Q42.099 -31.275 42.099 -35.246 Q42.099 -39.218 39.395 -41.888 Q36.691 -44.558 32.692 -44.558 Q28.748 -44.558 26.095 -41.872 Q23.444 -39.185 23.444 -35.214 Q23.444 -31.242 26.111 -28.572 Q28.78 -25.902 32.726 -25.902 Z M109.145 -70.531 Q113.117 -70.531 115.787 -73.217 Q118.456 -75.904 118.456 -79.875 Q118.456 -83.847 115.769 -86.517 Q113.083 -89.186 109.113 -89.186 Q105.141 -89.186 102.471 -86.499 Q99.801 -83.813 99.801 -79.843 Q99.801 -75.871 102.487 -73.201 Q105.174 -70.531 109.145 -70.531 Z"/></g><g id="Thin-L" transform="matrix(1 0 0 1 787.282 1556)"><path d="M107.612 22.82 Q101.47 22.82 97.1 18.431 Q92.732 14.04 92.732 7.911 Q92.732 6.727 93.662 2.552 L45.943 -25.79 Q43.839 -23.227 40.782 -21.774 Q37.724 -20.321 34.135 -20.321 Q28.058 -20.321 23.704 -24.72 Q19.35 -29.117 19.35 -35.259 Q19.35 -41.401 23.704 -45.771 Q28.058 -50.139 34.095 -50.139 Q37.599 -50.139 40.63 -48.764 Q43.662 -47.39 45.745 -44.744 L93.662 -72.888 Q93.215 -74.178 92.974 -75.549 Q92.732 -76.92 92.732 -78.387 Q92.732 -84.5 97.129 -88.891 Q101.528 -93.28 107.67 -93.28 Q113.812 -93.28 118.18 -88.881 Q122.55 -84.484 122.55 -78.342 Q122.55 -72.2 118.161 -67.83 Q113.77 -63.462 107.604 -63.462 Q104.147 -63.462 101.23 -64.913 Q98.313 -66.364 96.229 -68.783 L48.201 -40.787 Q48.685 -39.497 48.926 -38.089 Q49.168 -36.681 49.168 -35.249 Q49.168 -33.816 48.946 -32.545 Q48.722 -31.273 48.275 -29.983 L96.39 -1.714 Q98.519 -4.133 101.384 -5.566 Q104.25 -6.998 107.649 -6.998 Q113.851 -6.998 118.201 -2.601 Q122.55 1.798 122.55 7.94 Q122.55 14.082 118.151 18.45 Q113.754 22.82 107.612 22.82 Z M107.668 17.858 Q111.907 17.858 114.749 14.991 Q117.588 12.123 117.588 7.883 Q117.588 3.644 114.721 0.803 Q111.853 -2.037 107.613 -2.037 Q103.374 -2.037 100.533 0.83 Q97.693 3.699 97.693 7.938 Q97.693 12.178 100.56 15.019 Q103.429 17.858 107.668 17.858 Z M34.162 -25.282 Q38.455 -25.282 41.332 -28.15 Q44.207 -31.018 44.207 -35.257 Q44.207 -39.497 41.304 -42.338 Q38.4 -45.178 34.108 -45.178 Q29.922 -45.178 27.116 -42.31 Q24.312 -39.442 24.312 -35.203 Q24.312 -30.963 27.143 -28.122 Q29.976 -25.282 34.162 -25.282 Z M107.668 -68.423 Q111.907 -68.423 114.749 -71.29 Q117.588 -74.159 117.588 -78.398 Q117.588 -82.637 114.721 -85.479 Q111.853 -88.318 107.613 -88.318 Q103.374 -88.318 100.533 -85.451 Q97.693 -82.583 97.693 -78.343 Q97.693 -74.104 100.56 -71.263 Q103.429 -68.423 107.668 -68.423 Z"/></g><g id="Ultralight-L" transform="matrix(1 0 0 1 491.205 1556)"><path d="M106.709 20.885 Q101.023 20.885 96.952 16.786 Q92.88 12.689 92.88 7.018 Q92.88 5.866 93.847 1.696 L46.279 -26.684 Q44.331 -24.189 41.39 -22.777 Q38.447 -21.362 34.991 -21.362 Q29.388 -21.362 25.337 -25.473 Q21.285 -29.581 21.285 -35.269 Q21.285 -40.954 25.337 -45.026 Q29.388 -49.097 34.94 -49.097 Q38.334 -49.097 41.257 -47.759 Q44.183 -46.422 46.117 -43.776 L93.847 -71.995 Q93.364 -73.285 93.122 -74.656 Q92.88 -76.026 92.88 -77.5 Q92.88 -83.149 96.99 -87.246 Q101.099 -91.345 106.786 -91.345 Q112.472 -91.345 116.543 -87.235 Q120.615 -83.126 120.615 -77.439 Q120.615 -71.753 116.516 -67.682 Q112.419 -63.61 106.701 -63.61 Q103.331 -63.61 100.525 -65.061 Q97.718 -66.512 95.782 -68.931 L48.053 -40.712 Q48.536 -39.422 48.778 -38.052 Q49.02 -36.681 49.02 -35.23 Q49.02 -33.779 48.778 -32.489 Q48.536 -31.199 48.053 -29.909 L95.944 -1.529 Q97.937 -3.947 100.691 -5.399 Q103.443 -6.85 106.751 -6.85 Q112.499 -6.85 116.556 -2.74 Q120.615 1.369 120.615 7.056 Q120.615 12.742 116.505 16.813 Q112.396 20.885 106.709 20.885 Z M106.781 17.338 Q111.182 17.338 114.125 14.361 Q117.068 11.384 117.068 6.984 Q117.068 2.583 114.091 -0.36 Q111.114 -3.302 106.714 -3.302 Q102.313 -3.302 99.37 -0.326 Q96.428 2.651 96.428 7.051 Q96.428 11.452 99.404 14.395 Q102.381 17.338 106.781 17.338 Z M35.025 -24.91 Q39.495 -24.91 42.483 -27.887 Q45.473 -30.863 45.473 -35.264 Q45.473 -39.664 42.449 -42.607 Q39.426 -45.55 34.957 -45.55 Q30.626 -45.55 27.729 -42.573 Q24.832 -39.597 24.832 -35.196 Q24.832 -30.796 27.762 -27.853 Q30.694 -24.91 35.025 -24.91 Z M106.781 -67.157 Q111.182 -67.157 114.125 -70.134 Q117.068 -73.111 117.068 -77.511 Q117.068 -81.912 114.091 -84.855 Q111.114 -87.797 106.714 -87.797 Q102.313 -87.797 99.37 -84.821 Q96.428 -81.844 96.428 -77.444 Q96.428 -73.043 99.404 -70.1 Q102.381 -67.157 106.781 -67.157 Z"/></g><g id="Bold-M" transform="matrix(1 0 0 1 2281.8 1126)"><path d="M85.493 19.02 Q77.625 19.02 72.125 13.551 Q66.625 8.083 66.625 0.27 Q66.625 -0.355 66.875 -2.105 L36 -19.98 Q33.625 -18.23 30.761 -17.23 Q27.898 -16.23 24.625 -16.23 Q16.76 -16.23 11.255 -21.762 Q5.75 -27.296 5.75 -35.2 Q5.75 -43.105 11.255 -48.667 Q16.76 -54.23 24.625 -54.23 Q27.875 -54.23 30.875 -53.167 Q33.875 -52.105 36.375 -50.23 L66.75 -67.855 Q66.625 -68.48 66.625 -69.23 Q66.625 -69.98 66.625 -70.605 Q66.625 -78.47 72.132 -83.975 Q77.64 -89.48 85.507 -89.48 Q93.375 -89.48 98.875 -83.972 Q104.375 -78.465 104.375 -70.597 Q104.375 -62.73 98.87 -57.23 Q93.365 -51.73 85.5 -51.73 Q81.955 -51.73 78.853 -52.917 Q75.75 -54.105 73.25 -56.23 L43.375 -39.105 Q43.625 -38.099 43.688 -37.165 Q43.75 -36.23 43.75 -35.167 Q43.75 -34.105 43.625 -33.042 Q43.5 -31.98 43.25 -30.98 L73 -13.855 Q75.5 -16.105 78.681 -17.417 Q81.864 -18.73 85.5 -18.73 Q93.365 -18.73 98.87 -13.197 Q104.375 -7.664 104.375 0.24 Q104.375 8.145 98.868 13.583 Q93.36 19.02 85.493 19.02 Z M85.424 4.52 Q87.25 4.52 88.562 3.259 Q89.875 1.998 89.875 0.134 Q89.875 -1.73 88.581 -2.98 Q87.287 -4.23 85.375 -4.23 Q83.569 -4.23 82.347 -2.917 Q81.125 -1.605 81.125 0.145 Q81.125 1.895 82.361 3.208 Q83.596 4.52 85.424 4.52 Z M24.636 -30.73 Q26.5 -30.73 27.875 -32.016 Q29.25 -33.302 29.25 -35.204 Q29.25 -37.105 27.875 -38.417 Q26.5 -39.73 24.636 -39.73 Q22.773 -39.73 21.511 -38.444 Q20.25 -37.157 20.25 -35.256 Q20.25 -33.355 21.511 -32.042 Q22.773 -30.73 24.636 -30.73 Z M85.5 -66.23 Q87.25 -66.23 88.5 -67.466 Q89.75 -68.701 89.75 -70.529 Q89.75 -72.355 88.514 -73.667 Q87.279 -74.98 85.451 -74.98 Q83.625 -74.98 82.312 -73.686 Q81 -72.392 81 -70.48 Q81 -68.674 82.375 -67.452 Q83.75 -66.23 85.5 -66.23 Z"/></g><g id="Semibold-M" transform="matrix(1 0 0 1 1985.97 1126)"><path d="M85.279 17.173 Q78.114 17.173 73.104 12.179 Q68.093 7.186 68.093 0.053 Q68.093 -0.626 68.396 -2.811 L35.674 -21.827 Q33.462 -20.024 30.703 -18.996 Q27.942 -17.969 24.788 -17.969 Q17.625 -17.969 12.611 -22.999 Q7.598 -28.029 7.598 -35.214 Q7.598 -42.399 12.611 -47.445 Q17.625 -52.491 24.788 -52.491 Q27.929 -52.491 30.766 -51.429 Q33.604 -50.366 35.886 -48.491 L68.326 -67.366 Q68.146 -68.1 68.12 -68.876 Q68.093 -69.654 68.093 -70.442 Q68.093 -77.605 73.108 -82.619 Q78.123 -87.632 85.286 -87.632 Q92.451 -87.632 97.463 -82.617 Q102.472 -77.602 102.472 -70.437 Q102.472 -63.274 97.459 -58.262 Q92.445 -53.251 85.282 -53.251 Q81.974 -53.251 79.08 -54.385 Q76.185 -55.517 73.903 -57.534 L41.745 -38.942 Q41.995 -37.992 42.057 -37.111 Q42.12 -36.23 42.12 -35.195 Q42.12 -34.159 42.021 -33.205 Q41.924 -32.251 41.674 -31.306 L73.761 -12.714 Q76.044 -14.801 78.984 -16.005 Q81.922 -17.209 85.282 -17.209 Q92.445 -17.209 97.459 -12.179 Q102.472 -7.149 102.472 0.036 Q102.472 7.221 97.457 12.196 Q92.442 17.173 85.279 17.173 Z M85.239 4.629 Q87.196 4.629 88.562 3.291 Q89.929 1.954 89.929 -0.024 Q89.929 -2.001 88.573 -3.334 Q87.216 -4.665 85.213 -4.665 Q83.267 -4.665 81.951 -3.297 Q80.636 -1.931 80.636 -0.017 Q80.636 1.895 81.959 3.261 Q83.282 4.629 85.239 4.629 Z M24.794 -30.512 Q26.771 -30.512 28.174 -31.865 Q29.576 -33.216 29.576 -35.215 Q29.576 -37.214 28.174 -38.58 Q26.771 -39.947 24.794 -39.947 Q22.816 -39.947 21.479 -38.595 Q20.141 -37.244 20.141 -35.245 Q20.141 -33.246 21.479 -31.88 Q22.816 -30.512 24.794 -30.512 Z M85.282 -65.795 Q87.196 -65.795 88.528 -67.119 Q89.859 -68.442 89.859 -70.399 Q89.859 -72.355 88.535 -73.721 Q87.211 -75.089 85.255 -75.089 Q83.299 -75.089 81.933 -73.732 Q80.565 -72.376 80.565 -70.371 Q80.565 -68.426 81.968 -67.111 Q83.37 -65.795 85.282 -65.795 Z"/></g><g id="Medium-M" transform="matrix(1 0 0 1 1689.91 1126)"><path d="M85.118 15.786 Q78.481 15.786 73.838 11.15 Q69.192 6.514 69.192 -0.11 Q69.192 -0.83 69.537 -3.341 L35.429 -23.214 Q33.34 -21.369 30.657 -20.321 Q27.975 -19.274 24.91 -19.274 Q18.274 -19.274 13.629 -23.925 Q8.984 -28.577 8.984 -35.222 Q8.984 -41.869 13.629 -46.527 Q18.274 -51.186 24.91 -51.186 Q27.97 -51.186 30.685 -50.124 Q33.4 -49.061 35.519 -47.186 L69.509 -66.999 Q69.287 -67.814 69.24 -68.611 Q69.192 -69.409 69.192 -70.32 Q69.192 -76.956 73.839 -81.601 Q78.485 -86.246 85.121 -86.246 Q91.759 -86.246 96.403 -81.6 Q101.046 -76.955 101.046 -70.317 Q101.046 -63.681 96.401 -59.037 Q91.756 -54.392 85.12 -54.392 Q81.989 -54.392 79.25 -55.485 Q76.511 -56.577 74.391 -58.512 L40.521 -38.82 Q40.771 -37.914 40.834 -37.071 Q40.896 -36.23 40.896 -35.215 Q40.896 -34.2 40.819 -33.327 Q40.741 -32.455 40.491 -31.551 L74.331 -11.857 Q76.451 -13.822 79.209 -14.945 Q81.968 -16.067 85.12 -16.067 Q91.756 -16.067 96.401 -11.415 Q101.046 -6.762 101.046 -0.117 Q101.046 6.529 96.4 11.158 Q91.755 15.786 85.118 15.786 Z M85.101 4.71 Q87.155 4.71 88.562 3.315 Q89.97 1.92 89.97 -0.142 Q89.97 -2.205 88.567 -3.599 Q87.164 -4.991 85.09 -4.991 Q83.041 -4.991 81.655 -3.584 Q80.269 -2.176 80.269 -0.14 Q80.269 1.895 81.659 3.303 Q83.047 4.71 85.101 4.71 Z M24.913 -30.35 Q26.975 -30.35 28.398 -31.751 Q29.821 -33.152 29.821 -35.224 Q29.821 -37.295 28.398 -38.702 Q26.975 -40.11 24.913 -40.11 Q22.85 -40.11 21.455 -38.709 Q20.06 -37.307 20.06 -35.236 Q20.06 -33.165 21.455 -31.757 Q22.85 -30.35 24.913 -30.35 Z M85.12 -65.469 Q87.155 -65.469 88.547 -66.859 Q89.94 -68.247 89.94 -70.301 Q89.94 -72.355 88.551 -73.762 Q87.161 -75.17 85.108 -75.17 Q83.054 -75.17 81.646 -73.767 Q80.239 -72.364 80.239 -70.29 Q80.239 -68.241 81.661 -66.855 Q83.084 -65.469 85.12 -65.469 Z"/></g><g id="Regular-M" transform="matrix(1 0 0 1 1394.06 1126)"><path d="M85 14.77 Q78.75 14.77 74.375 10.395 Q70 6.02 70 -0.23 Q70 -0.98 70.375 -3.73 L35.25 -24.23 Q33.25 -22.355 30.625 -21.292 Q28 -20.23 25 -20.23 Q18.75 -20.23 14.375 -24.605 Q10 -28.98 10 -35.23 Q10 -41.48 14.375 -45.855 Q18.75 -50.23 25 -50.23 Q28 -50.23 30.625 -49.167 Q33.25 -48.105 35.25 -46.23 L70.375 -66.73 Q70.125 -67.605 70.062 -68.417 Q70 -69.23 70 -70.23 Q70 -76.48 74.375 -80.855 Q78.75 -85.23 85 -85.23 Q91.25 -85.23 95.625 -80.855 Q100 -76.48 100 -70.23 Q100 -63.98 95.625 -59.605 Q91.25 -55.23 85 -55.23 Q82 -55.23 79.375 -56.292 Q76.75 -57.355 74.75 -59.23 L39.625 -38.73 Q39.875 -37.855 39.938 -37.042 Q40 -36.23 40 -35.23 Q40 -34.23 39.938 -33.417 Q39.875 -32.605 39.625 -31.73 L74.75 -11.23 Q76.75 -13.105 79.375 -14.167 Q82 -15.23 85 -15.23 Q91.25 -15.23 95.625 -10.855 Q100 -6.48 100 -0.23 Q100 6.02 95.625 10.395 Q91.25 14.77 85 14.77 Z M85 4.77 Q87.125 4.77 88.562 3.333 Q90 1.895 90 -0.23 Q90 -2.355 88.562 -3.792 Q87.125 -5.23 85 -5.23 Q82.875 -5.23 81.438 -3.792 Q80 -2.355 80 -0.23 Q80 1.895 81.438 3.333 Q82.875 4.77 85 4.77 Z M25 -30.23 Q27.125 -30.23 28.562 -31.667 Q30 -33.105 30 -35.23 Q30 -37.355 28.562 -38.792 Q27.125 -40.23 25 -40.23 Q22.875 -40.23 21.438 -38.792 Q20 -37.355 20 -35.23 Q20 -33.105 21.438 -31.667 Q22.875 -30.23 25 -30.23 Z M85 -65.23 Q87.125 -65.23 88.562 -66.667 Q90 -68.105 90 -70.23 Q90 -72.355 88.562 -73.792 Q87.125 -75.23 85 -75.23 Q82.875 -75.23 81.438 -73.792 Q80 -72.355 80 -70.23 Q80 -68.105 81.438 -66.667 Q82.875 -65.23 85 -65.23 Z"/></g><g id="Light-M" transform="matrix(1 0 0 1 1098.18 1126)"><path d="M84.028 12.27 Q78.414 12.27 74.495 8.344 Q70.578 4.418 70.578 -1.191 Q70.578 -1.941 71.096 -4.836 L35.539 -25.769 Q33.731 -23.894 31.244 -22.831 Q28.756 -21.769 25.914 -21.769 Q20.325 -21.769 16.413 -25.711 Q12.5 -29.654 12.5 -35.23 Q12.5 -40.806 16.413 -44.749 Q20.325 -48.691 25.914 -48.691 Q28.756 -48.691 31.244 -47.629 Q33.731 -46.566 35.539 -44.691 L71.096 -65.576 Q70.799 -66.499 70.688 -67.384 Q70.578 -68.269 70.578 -69.269 Q70.578 -74.877 74.506 -78.804 Q78.436 -82.73 84.05 -82.73 Q89.664 -82.73 93.581 -78.8 Q97.5 -74.871 97.5 -69.257 Q97.5 -63.644 93.574 -59.725 Q89.647 -55.807 84.039 -55.807 Q81.183 -55.807 78.726 -56.894 Q76.269 -57.98 74.461 -59.855 L38.904 -38.922 Q39.201 -37.999 39.312 -37.115 Q39.422 -36.23 39.422 -35.23 Q39.422 -34.23 39.312 -33.345 Q39.201 -32.461 38.904 -31.537 L74.461 -10.605 Q76.269 -12.48 78.726 -13.566 Q81.183 -14.652 84.039 -14.652 Q89.647 -14.652 93.574 -10.724 Q97.5 -6.794 97.5 -1.18 Q97.5 4.434 93.57 8.351 Q89.641 12.27 84.028 12.27 Z M84.039 4.77 Q86.573 4.77 88.286 3.056 Q90 1.343 90 -1.191 Q90 -3.725 88.286 -5.439 Q86.573 -7.154 84.039 -7.154 Q81.505 -7.154 79.791 -5.439 Q78.076 -3.725 78.076 -1.191 Q78.076 1.343 79.791 3.056 Q81.505 4.77 84.039 4.77 Z M25.914 -29.269 Q28.468 -29.269 30.195 -30.982 Q31.924 -32.696 31.924 -35.23 Q31.924 -37.764 30.195 -39.477 Q28.468 -41.191 25.914 -41.191 Q23.4 -41.191 21.7 -39.477 Q20 -37.764 20 -35.23 Q20 -32.696 21.7 -30.982 Q23.4 -29.269 25.914 -29.269 Z M84.039 -63.306 Q86.573 -63.306 88.286 -65.021 Q90 -66.735 90 -69.269 Q90 -71.802 88.286 -73.516 Q86.573 -75.23 84.039 -75.23 Q81.505 -75.23 79.791 -73.516 Q78.076 -71.802 78.076 -69.269 Q78.076 -66.735 79.791 -65.021 Q81.505 -63.306 84.039 -63.306 Z"/></g><g id="Thin-M" transform="matrix(1 0 0 1 802.565 1126)"><path d="M83.054 9.77 Q78.078 9.77 74.615 6.293 Q71.154 2.815 71.154 -2.152 Q71.154 -2.902 71.817 -5.941 L35.828 -27.307 Q34.211 -25.432 31.863 -24.37 Q29.512 -23.307 26.828 -23.307 Q21.899 -23.307 18.45 -26.816 Q15 -30.326 15 -35.23 Q15 -40.134 18.45 -43.644 Q21.899 -47.152 26.828 -47.152 Q29.512 -47.152 31.863 -46.09 Q34.211 -45.027 35.828 -43.152 L71.817 -64.422 Q71.471 -65.394 71.312 -66.35 Q71.154 -67.307 71.154 -68.307 Q71.154 -73.275 74.638 -76.752 Q78.123 -80.23 83.1 -80.23 Q88.078 -80.23 91.539 -76.746 Q95 -73.261 95 -68.284 Q95 -63.307 91.522 -59.845 Q88.045 -56.384 83.078 -56.384 Q80.365 -56.384 78.078 -57.495 Q75.789 -58.605 74.172 -60.48 L38.182 -39.115 Q38.529 -38.144 38.688 -37.186 Q38.846 -36.23 38.846 -35.23 Q38.846 -34.23 38.688 -33.274 Q38.529 -32.316 38.182 -31.345 L74.172 -9.98 Q75.789 -11.855 78.078 -12.965 Q80.365 -14.076 83.078 -14.076 Q88.045 -14.076 91.522 -10.592 Q95 -7.107 95 -2.13 Q95 2.848 91.516 6.309 Q88.031 9.77 83.054 9.77 Z M83.078 4.77 Q86.019 4.77 88.01 2.78 Q90 0.789 90 -2.152 Q90 -5.095 88.01 -7.086 Q86.019 -9.076 83.078 -9.076 Q80.135 -9.076 78.144 -7.086 Q76.154 -5.095 76.154 -2.152 Q76.154 0.789 78.144 2.78 Q80.135 4.77 83.078 4.77 Z M26.828 -28.307 Q29.81 -28.307 31.828 -30.297 Q33.846 -32.287 33.846 -35.23 Q33.846 -38.172 31.828 -40.162 Q29.81 -42.152 26.828 -42.152 Q23.925 -42.152 21.962 -40.162 Q20 -38.172 20 -35.23 Q20 -32.287 21.962 -30.297 Q23.925 -28.307 26.828 -28.307 Z M83.078 -61.384 Q86.019 -61.384 88.01 -63.374 Q90 -65.365 90 -68.307 Q90 -71.249 88.01 -73.24 Q86.019 -75.23 83.078 -75.23 Q80.135 -75.23 78.144 -73.24 Q76.154 -71.249 76.154 -68.307 Q76.154 -65.365 78.144 -63.374 Q80.135 -61.384 83.078 -61.384 Z"/></g><g id="Ultralight-M" transform="matrix(1 0 0 1 506.415 1126)"><path d="M82.47 8.27 Q77.875 8.27 74.688 5.061 Q71.5 1.854 71.5 -2.73 Q71.5 -3.48 72.25 -6.605 L36 -28.23 Q34.5 -26.355 32.233 -25.292 Q29.966 -24.23 27.375 -24.23 Q22.844 -24.23 19.672 -27.48 Q16.5 -30.73 16.5 -35.23 Q16.5 -39.73 19.672 -42.98 Q22.844 -46.23 27.375 -46.23 Q29.966 -46.23 32.233 -45.167 Q34.5 -44.105 36 -42.23 L72.25 -63.73 Q71.875 -64.73 71.688 -65.73 Q71.5 -66.73 71.5 -67.73 Q71.5 -72.314 74.718 -75.521 Q77.934 -78.73 82.53 -78.73 Q87.125 -78.73 90.312 -75.512 Q93.5 -72.296 93.5 -67.7 Q93.5 -63.105 90.291 -59.917 Q87.084 -56.73 82.5 -56.73 Q79.875 -56.73 77.688 -57.855 Q75.5 -58.98 74 -60.855 L37.75 -39.23 Q38.125 -38.23 38.312 -37.23 Q38.5 -36.23 38.5 -35.23 Q38.5 -34.23 38.312 -33.23 Q38.125 -32.23 37.75 -31.23 L74 -9.605 Q75.5 -11.48 77.688 -12.605 Q79.875 -13.73 82.5 -13.73 Q87.084 -13.73 90.291 -10.512 Q93.5 -7.296 93.5 -2.7 Q93.5 1.895 90.282 5.083 Q87.066 8.27 82.47 8.27 Z M82.5 4.77 Q85.688 4.77 87.844 2.614 Q90 0.458 90 -2.73 Q90 -5.917 87.844 -8.074 Q85.688 -10.23 82.5 -10.23 Q79.312 -10.23 77.156 -8.074 Q75 -5.917 75 -2.73 Q75 0.458 77.156 2.614 Q79.312 4.77 82.5 4.77 Z M27.375 -27.73 Q30.616 -27.73 32.807 -29.886 Q35 -32.042 35 -35.23 Q35 -38.417 32.807 -40.574 Q30.616 -42.73 27.375 -42.73 Q24.241 -42.73 22.12 -40.574 Q20 -38.417 20 -35.23 Q20 -32.042 22.12 -29.886 Q24.241 -27.73 27.375 -27.73 Z M82.5 -60.23 Q85.688 -60.23 87.844 -62.386 Q90 -64.542 90 -67.73 Q90 -70.917 87.844 -73.074 Q85.688 -75.23 82.5 -75.23 Q79.312 -75.23 77.156 -73.074 Q75 -70.917 75 -67.73 Q75 -64.542 77.156 -62.386 Q79.312 -60.23 82.5 -60.23 Z"/></g><g id="Bold-S" transform="matrix(1 0 0 1 2294.23 696)"><path d="M64.298 5.995 Q58.09 5.995 53.751 1.68 Q49.411 -2.634 49.411 -8.798 Q49.411 -9.587 49.707 -10.771 L29.686 -23 Q27.812 -21.718 25.647 -20.979 Q23.482 -20.239 21.007 -20.239 Q14.802 -20.239 10.458 -24.604 Q6.115 -28.97 6.115 -35.206 Q6.115 -41.443 10.458 -45.832 Q14.802 -50.221 21.007 -50.221 Q23.473 -50.221 25.741 -49.432 Q28.01 -48.643 29.982 -47.262 L49.608 -59.294 Q49.51 -59.788 49.46 -60.41 Q49.411 -61.032 49.411 -61.563 Q49.411 -67.768 53.757 -72.112 Q58.102 -76.455 64.309 -76.455 Q70.517 -76.455 74.856 -72.11 Q79.196 -67.764 79.196 -61.557 Q79.196 -55.349 74.852 -51.01 Q70.509 -46.67 64.303 -46.67 Q61.605 -46.67 59.256 -47.558 Q56.907 -48.446 54.934 -50.024 L35.702 -38.386 Q35.9 -37.592 35.998 -36.825 Q36.097 -36.056 36.097 -35.181 Q36.097 -34.305 35.949 -33.436 Q35.801 -32.567 35.604 -31.778 L54.737 -20.14 Q56.709 -21.817 59.126 -22.803 Q61.542 -23.789 64.303 -23.789 Q70.509 -23.789 74.852 -19.424 Q79.196 -15.058 79.196 -8.822 Q79.196 -2.585 74.85 1.705 Q70.505 5.995 64.298 5.995 Z M64.243 -4.656 Q66.02 -4.656 67.282 -5.878 Q68.544 -7.1 68.544 -8.906 Q68.544 -10.712 67.297 -11.925 Q66.049 -13.138 64.205 -13.138 Q62.444 -13.138 61.253 -11.876 Q60.063 -10.613 60.063 -8.897 Q60.063 -7.181 61.265 -5.919 Q62.466 -4.656 64.243 -4.656 Z M21.016 -30.89 Q22.822 -30.89 24.134 -32.132 Q25.445 -33.374 25.445 -35.209 Q25.445 -37.045 24.134 -38.307 Q22.822 -39.569 21.016 -39.569 Q19.21 -39.569 17.988 -38.328 Q16.766 -37.086 16.766 -35.251 Q16.766 -33.415 17.988 -32.153 Q19.21 -30.89 21.016 -30.89 Z M64.303 -57.322 Q66.02 -57.322 67.233 -58.524 Q68.446 -59.725 68.446 -61.503 Q68.446 -63.279 67.244 -64.541 Q66.042 -65.804 64.265 -65.804 Q62.489 -65.804 61.226 -64.556 Q59.964 -63.309 59.964 -61.464 Q59.964 -59.704 61.276 -58.512 Q62.587 -57.322 64.303 -57.322 Z"/></g><g id="Semibold-S" transform="matrix(1 0 0 1 1998.1 696)"><path d="M64.129 4.538 Q58.476 4.538 54.523 0.598 Q50.569 -3.342 50.569 -8.97 Q50.569 -9.802 50.907 -11.328 L29.429 -24.458 Q27.684 -23.134 25.6 -22.372 Q23.517 -21.611 21.135 -21.611 Q15.484 -21.611 11.528 -25.58 Q7.572 -29.548 7.572 -35.217 Q7.572 -40.886 11.528 -44.868 Q15.484 -48.849 21.135 -48.849 Q23.515 -48.849 25.655 -48.06 Q27.795 -47.271 29.596 -45.89 L50.852 -58.909 Q50.71 -59.488 50.64 -60.131 Q50.569 -60.775 50.569 -61.435 Q50.569 -67.086 54.526 -71.042 Q58.483 -74.998 64.135 -74.998 Q69.788 -74.998 73.742 -71.041 Q77.695 -67.084 77.695 -61.431 Q77.695 -55.779 73.739 -51.825 Q69.783 -47.871 64.132 -47.871 Q61.62 -47.871 59.435 -48.716 Q57.25 -49.56 55.449 -51.052 L34.416 -38.258 Q34.613 -37.508 34.712 -36.782 Q34.811 -36.056 34.811 -35.202 Q34.811 -34.347 34.683 -33.564 Q34.557 -32.781 34.36 -32.036 L55.338 -19.24 Q57.138 -20.788 59.363 -21.689 Q61.588 -22.589 64.132 -22.589 Q69.783 -22.589 73.739 -18.621 Q77.695 -14.652 77.695 -8.983 Q77.695 -3.314 73.738 0.611 Q69.781 4.538 64.129 4.538 Z M64.097 -4.57 Q65.977 -4.57 67.282 -5.853 Q68.587 -7.135 68.587 -9.03 Q68.587 -10.926 67.29 -12.204 Q65.993 -13.481 64.077 -13.481 Q62.207 -13.481 60.941 -12.175 Q59.677 -10.871 59.677 -9.025 Q59.677 -7.181 60.947 -5.876 Q62.219 -4.57 64.097 -4.57 Z M21.14 -30.719 Q23.036 -30.719 24.369 -32.013 Q25.703 -33.306 25.703 -35.218 Q25.703 -37.131 24.369 -38.435 Q23.036 -39.741 21.14 -39.741 Q19.245 -39.741 17.963 -38.447 Q16.68 -37.154 16.68 -35.242 Q16.68 -33.329 17.963 -32.025 Q19.245 -30.719 21.14 -30.719 Z M64.132 -56.979 Q65.977 -56.979 67.254 -58.25 Q68.532 -59.521 68.532 -61.4 Q68.532 -63.279 67.26 -64.584 Q65.989 -65.89 64.11 -65.89 Q62.231 -65.89 60.927 -64.593 Q59.621 -63.296 59.621 -61.378 Q59.621 -59.509 60.954 -58.244 Q62.288 -56.979 64.132 -56.979 Z"/></g><g id="Medium-S" transform="matrix(1 0 0 1 1701.85 696)"><path d="M64.002 3.444 Q58.766 3.444 55.102 -0.214 Q51.437 -3.872 51.437 -9.098 Q51.437 -9.962 51.808 -11.746 L29.235 -25.552 Q27.587 -24.195 25.566 -23.418 Q23.543 -22.641 21.232 -22.641 Q15.996 -22.641 12.331 -26.31 Q8.666 -29.981 8.666 -35.224 Q8.666 -40.468 12.331 -44.144 Q15.996 -47.819 21.232 -47.819 Q23.548 -47.819 25.591 -47.03 Q27.635 -46.241 29.306 -44.861 L51.785 -58.619 Q51.61 -59.262 51.524 -59.922 Q51.437 -60.582 51.437 -61.338 Q51.437 -66.574 55.103 -70.239 Q58.769 -73.904 64.005 -73.904 Q69.242 -73.904 72.906 -70.238 Q76.569 -66.573 76.569 -61.336 Q76.569 -56.1 72.905 -52.436 Q69.24 -48.771 64.004 -48.771 Q61.632 -48.771 59.57 -49.584 Q57.507 -50.397 55.835 -51.825 L33.451 -38.161 Q33.648 -37.446 33.747 -36.751 Q33.845 -36.056 33.845 -35.218 Q33.845 -34.38 33.735 -33.661 Q33.624 -32.942 33.427 -32.229 L55.787 -18.564 Q57.46 -20.016 59.542 -20.852 Q61.624 -21.689 64.004 -21.689 Q69.24 -21.689 72.905 -18.018 Q76.569 -14.347 76.569 -9.104 Q76.569 -3.86 72.904 -0.208 Q69.239 3.444 64.002 3.444 Z M63.989 -4.506 Q65.945 -4.506 67.282 -5.834 Q68.619 -7.161 68.619 -9.124 Q68.619 -11.087 67.286 -12.413 Q65.952 -13.739 63.98 -13.739 Q62.028 -13.739 60.708 -12.401 Q59.387 -11.064 59.387 -9.122 Q59.387 -7.181 60.711 -5.844 Q62.033 -4.506 63.989 -4.506 Z M21.234 -30.591 Q23.197 -30.591 24.546 -31.923 Q25.896 -33.256 25.896 -35.225 Q25.896 -37.195 24.546 -38.532 Q23.197 -39.869 21.234 -39.869 Q19.271 -39.869 17.944 -38.537 Q16.616 -37.204 16.616 -35.235 Q16.616 -33.265 17.944 -31.928 Q19.271 -30.591 21.234 -30.591 Z M64.004 -56.721 Q65.945 -56.721 67.27 -58.045 Q68.596 -59.367 68.596 -61.323 Q68.596 -63.279 67.273 -64.616 Q65.95 -65.954 63.994 -65.954 Q62.038 -65.954 60.701 -64.62 Q59.363 -63.286 59.363 -61.314 Q59.363 -59.363 60.713 -58.042 Q62.062 -56.721 64.004 -56.721 Z"/></g><g id="Regular-S" transform="matrix(1 0 0 1 1405.73 696)"><path d="M63.909 2.642 Q58.978 2.642 55.526 -0.81 Q52.074 -4.262 52.074 -9.193 Q52.074 -10.081 52.468 -12.053 L29.094 -26.354 Q27.516 -24.973 25.539 -24.184 Q23.562 -23.395 21.303 -23.395 Q16.372 -23.395 12.92 -26.847 Q9.468 -30.299 9.468 -35.23 Q9.468 -40.161 12.92 -43.613 Q16.372 -47.065 21.303 -47.065 Q23.571 -47.065 25.544 -46.276 Q27.516 -45.487 29.094 -44.106 L52.468 -58.407 Q52.271 -59.097 52.173 -59.769 Q52.074 -60.441 52.074 -61.267 Q52.074 -66.198 55.526 -69.65 Q58.978 -73.102 63.909 -73.102 Q68.84 -73.102 72.292 -69.65 Q75.744 -66.198 75.744 -61.267 Q75.744 -56.336 72.292 -52.884 Q68.84 -49.432 63.909 -49.432 Q61.641 -49.432 59.668 -50.221 Q57.696 -51.01 56.118 -52.391 L32.744 -38.09 Q32.941 -37.4 33.039 -36.728 Q33.138 -36.056 33.138 -35.23 Q33.138 -34.404 33.039 -33.732 Q32.941 -33.06 32.744 -32.37 L56.118 -18.069 Q57.696 -19.45 59.673 -20.239 Q61.65 -21.028 63.909 -21.028 Q68.84 -21.028 72.292 -17.576 Q75.744 -14.124 75.744 -9.193 Q75.744 -4.262 72.292 -0.81 Q68.84 2.642 63.909 2.642 Z M63.909 -4.459 Q65.921 -4.459 67.282 -5.82 Q68.643 -7.181 68.643 -9.193 Q68.643 -11.205 67.282 -12.566 Q65.921 -13.927 63.909 -13.927 Q61.897 -13.927 60.536 -12.566 Q59.175 -11.205 59.175 -9.193 Q59.175 -7.181 60.536 -5.82 Q61.897 -4.459 63.909 -4.459 Z M21.303 -30.496 Q23.315 -30.496 24.676 -31.857 Q26.037 -33.218 26.037 -35.23 Q26.037 -37.242 24.676 -38.603 Q23.315 -39.964 21.303 -39.964 Q19.291 -39.964 17.93 -38.603 Q16.569 -37.242 16.569 -35.23 Q16.569 -33.218 17.93 -31.857 Q19.291 -30.496 21.303 -30.496 Z M63.909 -56.533 Q65.921 -56.533 67.282 -57.894 Q68.643 -59.255 68.643 -61.267 Q68.643 -63.279 67.282 -64.64 Q65.921 -66.001 63.909 -66.001 Q61.897 -66.001 60.536 -64.64 Q59.175 -63.279 59.175 -61.267 Q59.175 -59.255 60.536 -57.894 Q61.897 -56.533 63.909 -56.533 Z"/></g><g id="Light-S" transform="matrix(1 0 0 1 1109.75 696)"><path d="M63.142 0.67 Q58.712 0.67 55.621 -2.428 Q52.53 -5.526 52.53 -9.951 Q52.53 -10.839 53.038 -12.926 L29.322 -27.568 Q27.896 -26.187 26.027 -25.398 Q24.159 -24.609 22.024 -24.609 Q17.614 -24.609 14.527 -27.72 Q11.441 -30.83 11.441 -35.23 Q11.441 -39.63 14.527 -42.74 Q17.614 -45.851 22.024 -45.851 Q24.168 -45.851 26.032 -45.062 Q27.896 -44.273 29.322 -42.892 L53.038 -57.497 Q52.803 -58.224 52.666 -58.953 Q52.53 -59.682 52.53 -60.509 Q52.53 -64.934 55.629 -68.032 Q58.73 -71.129 63.159 -71.129 Q67.589 -71.129 70.68 -68.029 Q73.772 -64.929 73.772 -60.5 Q73.772 -56.07 70.674 -52.979 Q67.576 -49.888 63.151 -49.888 Q60.996 -49.888 59.156 -50.695 Q57.316 -51.503 55.89 -52.884 L32.174 -38.242 Q32.409 -37.513 32.546 -36.785 Q32.682 -36.056 32.682 -35.23 Q32.682 -34.404 32.546 -33.675 Q32.409 -32.947 32.174 -32.218 L55.89 -17.576 Q57.316 -18.957 59.16 -19.765 Q61.004 -20.572 63.151 -20.572 Q67.576 -20.572 70.674 -17.473 Q73.772 -14.372 73.772 -9.943 Q73.772 -5.513 70.671 -2.422 Q67.571 0.67 63.142 0.67 Z M63.151 -4.459 Q65.485 -4.459 67.064 -6.038 Q68.643 -7.617 68.643 -9.951 Q68.643 -12.286 67.064 -13.865 Q65.485 -15.445 63.151 -15.445 Q60.816 -15.445 59.237 -13.865 Q57.657 -12.286 57.657 -9.951 Q57.657 -7.617 59.237 -6.038 Q60.816 -4.459 63.151 -4.459 Z M22.024 -29.738 Q24.374 -29.738 25.964 -31.317 Q27.555 -32.896 27.555 -35.23 Q27.555 -37.564 25.964 -39.143 Q24.374 -40.722 22.024 -40.722 Q19.705 -40.722 18.137 -39.143 Q16.569 -37.564 16.569 -35.23 Q16.569 -32.896 18.137 -31.317 Q19.705 -29.738 22.024 -29.738 Z M63.151 -55.015 Q65.485 -55.015 67.064 -56.595 Q68.643 -58.174 68.643 -60.509 Q68.643 -62.843 67.064 -64.422 Q65.485 -66.001 63.151 -66.001 Q60.816 -66.001 59.237 -64.422 Q57.657 -62.843 57.657 -60.509 Q57.657 -58.174 59.237 -56.595 Q60.816 -55.015 63.151 -55.015 Z"/></g><g id="Thin-S" transform="matrix(1 0 0 1 814.015 696)"><path d="M62.373 -1.303 Q58.447 -1.303 55.715 -4.047 Q52.984 -6.79 52.984 -10.71 Q52.984 -11.597 53.607 -13.798 L29.55 -28.782 Q28.275 -27.401 26.515 -26.612 Q24.756 -25.823 22.745 -25.823 Q18.856 -25.823 16.135 -28.592 Q13.413 -31.361 13.413 -35.23 Q13.413 -39.099 16.135 -41.868 Q18.856 -44.637 22.745 -44.637 Q24.765 -44.637 26.52 -43.848 Q28.275 -43.059 29.55 -41.678 L53.607 -56.586 Q53.333 -57.353 53.159 -58.138 Q52.984 -58.923 52.984 -59.75 Q52.984 -63.67 55.733 -66.413 Q58.483 -69.157 62.41 -69.157 Q66.337 -69.157 69.068 -66.408 Q71.799 -63.659 71.799 -59.731 Q71.799 -55.805 69.055 -53.073 Q66.312 -50.342 62.392 -50.342 Q60.351 -50.342 58.644 -51.17 Q56.937 -51.996 55.662 -53.377 L31.605 -38.394 Q31.879 -37.628 32.053 -36.842 Q32.228 -36.056 32.228 -35.23 Q32.228 -34.404 32.053 -33.618 Q31.879 -32.832 31.605 -32.066 L55.662 -17.083 Q56.937 -18.464 58.648 -19.29 Q60.359 -20.118 62.392 -20.118 Q66.312 -20.118 69.055 -17.369 Q71.799 -14.619 71.799 -10.692 Q71.799 -6.765 69.05 -4.034 Q66.301 -1.303 62.373 -1.303 Z M62.392 -4.459 Q65.048 -4.459 66.846 -6.256 Q68.643 -8.054 68.643 -10.71 Q68.643 -13.367 66.846 -15.165 Q65.048 -16.962 62.392 -16.962 Q59.735 -16.962 57.937 -15.165 Q56.14 -13.367 56.14 -10.71 Q56.14 -8.054 57.937 -6.256 Q59.735 -4.459 62.392 -4.459 Z M22.745 -28.979 Q25.433 -28.979 27.252 -30.776 Q29.072 -32.573 29.072 -35.23 Q29.072 -37.887 27.252 -39.684 Q25.433 -41.481 22.745 -41.481 Q20.12 -41.481 18.344 -39.684 Q16.569 -37.887 16.569 -35.23 Q16.569 -32.573 18.344 -30.776 Q20.12 -28.979 22.745 -28.979 Z M62.392 -53.498 Q65.048 -53.498 66.846 -55.295 Q68.643 -57.093 68.643 -59.75 Q68.643 -62.406 66.846 -64.204 Q65.048 -66.001 62.392 -66.001 Q59.735 -66.001 57.937 -64.204 Q56.14 -62.406 56.14 -59.75 Q56.14 -57.093 57.937 -55.295 Q59.735 -53.498 62.392 -53.498 Z"/></g><g id="Ultralight-S" transform="matrix(1 0 0 1 517.792 696)"><path d="M61.913 -2.486 Q58.287 -2.486 55.772 -5.018 Q53.258 -7.549 53.258 -11.165 Q53.258 -12.053 53.948 -14.321 L29.686 -29.51 Q28.503 -28.129 26.808 -27.34 Q25.114 -26.551 23.177 -26.551 Q19.602 -26.551 17.1 -29.115 Q14.597 -31.679 14.597 -35.23 Q14.597 -38.78 17.1 -41.345 Q19.602 -43.909 23.177 -43.909 Q25.123 -43.909 26.812 -43.12 Q28.503 -42.331 29.686 -40.95 L53.948 -56.04 Q53.652 -56.829 53.455 -57.648 Q53.258 -58.468 53.258 -59.294 Q53.258 -62.911 55.796 -65.442 Q58.334 -67.973 61.96 -67.973 Q65.586 -67.973 68.101 -65.435 Q70.615 -62.897 70.615 -59.271 Q70.615 -55.645 68.084 -53.13 Q65.553 -50.615 61.937 -50.615 Q59.964 -50.615 58.337 -51.454 Q56.709 -52.292 55.526 -53.673 L31.264 -38.485 Q31.56 -37.696 31.757 -36.876 Q31.955 -36.056 31.955 -35.23 Q31.955 -34.404 31.757 -33.584 Q31.56 -32.764 31.264 -31.975 L55.526 -16.787 Q56.709 -18.168 58.342 -19.006 Q59.973 -19.844 61.937 -19.844 Q65.553 -19.844 68.084 -17.306 Q70.615 -14.768 70.615 -11.142 Q70.615 -7.516 68.077 -5.001 Q65.539 -2.486 61.913 -2.486 Z M61.937 -4.459 Q64.787 -4.459 66.715 -6.387 Q68.643 -8.315 68.643 -11.165 Q68.643 -14.016 66.715 -15.944 Q64.787 -17.872 61.937 -17.872 Q59.086 -17.872 57.158 -15.944 Q55.23 -14.016 55.23 -11.165 Q55.23 -8.315 57.158 -6.387 Q59.086 -4.459 61.937 -4.459 Z M23.177 -28.523 Q26.07 -28.523 28.025 -30.452 Q29.982 -32.38 29.982 -35.23 Q29.982 -38.08 28.025 -40.008 Q26.07 -41.936 23.177 -41.936 Q20.369 -41.936 18.469 -40.008 Q16.569 -38.08 16.569 -35.23 Q16.569 -32.38 18.469 -30.452 Q20.369 -28.523 23.177 -28.523 Z M61.937 -52.588 Q64.787 -52.588 66.715 -54.516 Q68.643 -56.444 68.643 -59.294 Q68.643 -62.145 66.715 -64.073 Q64.787 -66.001 61.937 -66.001 Q59.086 -66.001 57.158 -64.073 Q55.23 -62.145 55.23 -59.294 Q55.23 -56.444 57.158 -54.516 Q59.086 -52.588 61.937 -52.588 Z"/></g></g></svg>